<svg id="errado" xmlns="http://www.w3.org/2000/svg" width="21.713" height="21.713" viewBox="0 0 21.713 21.713">
  <path id="Path_9662" data-name="Path 9662" d="M18.506,8A10.506,10.506,0,1,0,29.012,18.506,10.506,10.506,0,0,0,18.506,8Zm4.705,15.211-4.705-4.705L13.8,23.211l4.705-4.705L13.8,13.8l4.705,4.705L23.211,13.8l-4.705,4.705Zm0,0" transform="translate(-7.65 -7.65)" fill="#feaa29"/>
  <g id="Group_26809" data-name="Group 26809">
    <path id="Path_9663" data-name="Path 9663" d="M10.856,0A10.856,10.856,0,1,0,21.713,10.856,10.857,10.857,0,0,0,10.856,0Zm0,21.012A10.156,10.156,0,1,1,21.012,10.856,10.156,10.156,0,0,1,10.856,21.012Zm0,0" fill="#feaa29"/>
    <path id="Path_9664" data-name="Path 9664" d="M142.435,132.528a.35.35,0,0,0-.5,0l-4.457,4.457-4.457-4.457a.35.35,0,1,0-.5.5l4.457,4.457-4.457,4.457a.35.35,0,1,0,.5.5l4.457-4.457,4.457,4.457a.35.35,0,0,0,.5-.5l-4.457-4.457,4.457-4.457A.35.35,0,0,0,142.435,132.528Zm0,0" transform="translate(-126.625 -126.625)" fill="#fff"/>
  </g>
</svg>
